<svg width="107" height="31" viewBox="0 0 107 31" fill="none" xmlns="http://www.w3.org/2000/svg">
<g clip-path="url(#clip0_503_11)">
<path d="M15.5 31C24.0604 31 31 24.0604 31 15.5C31 6.93959 24.0604 0 15.5 0C6.93959 0 0 6.93959 0 15.5C0 24.0604 6.93959 31 15.5 31Z" fill="white"/>
<path d="M53.5 31C62.0604 31 69 24.0604 69 15.5C69 6.93959 62.0604 0 53.5 0C44.9396 0 38 6.93959 38 15.5C38 24.0604 44.9396 31 53.5 31Z" fill="white"/>
<path d="M91.5 31C100.06 31 107 24.0604 107 15.5C107 6.93959 100.06 0 91.5 0C82.9396 0 76 6.93959 76 15.5C76 24.0604 82.9396 31 91.5 31Z" fill="white"/>
<path d="M16 7H12C9.23858 7 7 9.23858 7 12V20C7 22.7614 9.23858 25 12 25H20C22.7614 25 25 22.7614 25 20V12C25 9.23858 22.7614 7 20 7H16Z" stroke="#FF6B00" stroke-width="2" stroke-linecap="round" stroke-linejoin="round"/>
<path d="M16 12C18.2091 12 20 13.7909 20 16C20 18.2091 18.2091 20 16 20C13.7909 20 12 18.2091 12 16C12 13.7909 13.7909 12 16 12Z" stroke="#FF6B00" stroke-width="2" stroke-linecap="round" stroke-linejoin="round"/>
<path d="M21.5 12C22.3284 12 23 11.3284 23 10.5C23 9.67157 22.3284 9 21.5 9C20.6716 9 20 9.67157 20 10.5C20 11.3284 20.6716 12 21.5 12Z" fill="#FF6B00"/>
<path d="M47.1442 9.14535C46.7622 9.53295 46.5112 10.0771 46.3712 11.1111C46.228 12.1828 46.2269 13.6022 46.2269 15.6446V16.3554C46.2269 18.3944 46.228 19.8127 46.3712 20.8833C46.5101 21.9184 46.7622 22.4659 47.1453 22.8568C47.534 23.2378 48.0782 23.4899 49.1111 23.6287C50.1828 23.772 51.6021 23.7742 53.6445 23.7742H54.3553C56.3943 23.7742 57.8125 23.772 58.8843 23.6287C59.9182 23.4899 60.4657 23.2378 60.8567 22.8546C61.2376 22.467 61.4897 21.9228 61.6285 20.8889C61.7729 19.8171 61.774 18.3978 61.774 16.3554V15.6446C61.774 13.6055 61.7718 12.1873 61.6296 11.1167C61.4897 10.0816 61.2376 9.53406 60.8545 9.14313C60.4669 8.76219 59.9227 8.51009 58.8887 8.37126C57.817 8.22799 56.3977 8.22577 54.3553 8.22577H53.6445C51.6055 8.22577 50.1872 8.22799 49.1166 8.37126C48.0815 8.51009 47.5351 8.76219 47.1442 9.14535ZM53.6445 6.00457H54.3553C55.9601 6.00457 57.5893 5.95681 59.183 6.17005C60.4669 6.34219 61.5541 6.7098 62.4226 7.56941L62.4315 7.5794C63.29 8.45012 63.6587 9.53739 63.8308 10.8224C64.043 12.4139 63.9952 14.042 63.9952 15.6446V16.3554C63.9952 17.9591 64.0441 19.5883 63.8297 21.1832C63.6587 22.467 63.29 23.5543 62.4304 24.4228L62.4204 24.4317C61.5508 25.2902 60.4635 25.6578 59.1775 25.831C57.586 26.0432 55.9579 25.9954 54.3553 25.9954H53.6445C52.0408 25.9954 50.4116 26.0432 48.8179 25.8299C47.5329 25.6578 46.4456 25.2902 45.5783 24.4306L45.5683 24.4206C44.7109 23.5499 44.3422 22.4626 44.17 21.1776C43.9568 19.5872 44.0046 17.9591 44.0046 16.3554V15.6446C44.0046 14.0409 43.9568 12.4116 44.1712 10.8168C44.3422 9.53295 44.7109 8.44567 45.5705 7.57718L45.5794 7.5683C46.4501 6.7098 47.5374 6.34219 48.8223 6.16894C50.4149 5.95792 52.043 6.00457 53.6445 6.00457ZM47.3763 12.0884C47.4829 17.2861 50.0817 20.4046 54.6396 20.4046H54.9061V17.4327C56.5787 17.5993 57.8448 18.8254 58.3512 20.4046H60.7167C60.4741 19.5073 60.0439 18.6715 59.4547 17.9525C58.8655 17.2335 58.1305 16.6475 57.2983 16.2332C58.0441 15.7791 58.6883 15.1761 59.1904 14.4618C59.6926 13.7475 60.0421 12.9373 60.217 12.0818H58.0713C57.6049 13.7344 56.2188 15.2337 54.9061 15.3736V12.0884H52.7538V17.8458C51.4211 17.5126 49.7419 15.9 49.6686 12.0884H47.3763Z" fill="#FF6B00"/>
<path d="M91.5 8C92.3977 8 93.3186 8.02338 94.2111 8.06163L95.2653 8.11262L96.2744 8.17319L97.2193 8.238L98.0824 8.306C99.0191 8.37855 99.9005 8.78301 100.572 9.44823C101.243 10.1135 101.66 10.9968 101.751 11.9429L101.793 12.3945L101.872 13.3614C101.945 14.3633 102 15.4556 102 16.5C102 17.5444 101.945 18.6367 101.872 19.6386L101.793 20.6055C101.779 20.7606 101.766 20.9104 101.751 21.0571C101.66 22.0033 101.242 22.8868 100.571 23.5521C99.8999 24.2173 99.0182 24.6217 98.0814 24.694L97.2204 24.7609L96.2754 24.8268L95.2653 24.8874L94.2111 24.9384C93.3079 24.9781 92.404 24.9986 91.5 25C90.596 24.9986 89.6921 24.9781 88.7889 24.9384L87.7347 24.8874L86.7256 24.8268L85.7806 24.7609L84.9175 24.694C83.9809 24.6215 83.0995 24.217 82.4285 23.5518C81.7575 22.8865 81.3398 22.0032 81.2488 21.0571L81.2069 20.6055L81.1281 19.6386C81.0478 18.5943 81.0051 17.5474 81 16.5C81 15.4556 81.0546 14.3633 81.1281 13.3614L81.2069 12.3945C81.2205 12.2394 81.2341 12.0896 81.2488 11.9429C81.3397 10.997 81.7573 10.1138 82.4281 9.44855C83.0989 8.78335 83.98 8.37878 84.9165 8.306L85.7785 8.238L86.7235 8.17319L87.7336 8.11262L88.7878 8.06163C89.6914 8.02192 90.5956 8.00138 91.5 8ZM91.5 10.125C90.6337 10.125 89.7423 10.1484 88.875 10.1845L87.8481 10.2344L86.8621 10.2929L85.9361 10.3566L85.0876 10.4236C84.6417 10.4556 84.2214 10.6463 83.9012 10.962C83.581 11.2776 83.3816 11.6978 83.3384 12.148C83.2155 13.4326 83.1 15.0316 83.1 16.5C83.1 17.9684 83.2155 19.5674 83.3384 20.852C83.4276 21.7785 84.1542 22.4989 85.0876 22.5764L85.9361 22.6423L86.8621 22.7061L87.8481 22.7656L88.875 22.8155C89.7423 22.8516 90.6337 22.875 91.5 22.875C92.3662 22.875 93.2577 22.8516 94.125 22.8155L95.1519 22.7656L96.1378 22.7071L97.0639 22.6434L97.9123 22.5764C98.3583 22.5444 98.7786 22.3537 99.0988 22.038C99.419 21.7224 99.6184 21.3022 99.6616 20.852C99.7845 19.5674 99.9 17.9684 99.9 16.5C99.9 15.0316 99.7845 13.4326 99.6616 12.148C99.6184 11.6978 99.419 11.2776 99.0988 10.962C98.7786 10.6463 98.3583 10.4556 97.9123 10.4236L97.0639 10.3577L96.1378 10.2939L95.1519 10.2344L94.125 10.1845C93.2505 10.1464 92.3753 10.1266 91.5 10.125ZM89.4 13.9234C89.3999 13.8196 89.4249 13.7173 89.4728 13.6255C89.5207 13.5336 89.5901 13.455 89.6748 13.3965C89.7596 13.3379 89.8572 13.3012 89.9592 13.2896C90.0612 13.2779 90.1644 13.2916 90.2599 13.3295L90.345 13.372L94.755 15.9475C94.8428 15.9988 94.9171 16.0707 94.9716 16.1573C95.026 16.2438 95.059 16.3424 95.0678 16.4446C95.0765 16.5468 95.0608 16.6496 95.0219 16.7444C94.983 16.8391 94.922 16.9229 94.8442 16.9888L94.755 17.0525L90.345 19.6291C90.2561 19.6811 90.156 19.7104 90.0534 19.7144C89.9508 19.7184 89.8488 19.6969 89.7562 19.6519C89.6637 19.6068 89.5834 19.5396 89.5224 19.456C89.4614 19.3724 89.4216 19.2749 89.4063 19.1722L89.4 19.0766V13.9234Z" fill="#FF6B00"/>
</g>
<defs>
<clipPath id="clip0_503_11">
<rect width="107" height="31" fill="white"/>
</clipPath>
</defs>
</svg>
