<?xml version="1.0" encoding="UTF-8"?> <svg xmlns="http://www.w3.org/2000/svg" width="3500" height="501" viewBox="0 0 3500 501" fill="none"> <path d="M492.628 330.988C505.352 343.872 521.502 350.314 541.078 350.314C560.654 350.314 576.804 343.872 589.528 330.988C602.252 318.104 608.614 301.999 608.614 282.673C608.614 263.346 602.252 247.402 589.528 234.84C576.804 221.956 560.654 215.514 541.078 215.514C521.502 215.514 505.352 221.956 492.628 234.84C479.904 247.402 473.541 263.346 473.541 282.673C473.541 301.999 479.904 318.104 492.628 330.988ZM638.467 373.506C613.019 397.663 580.556 409.742 541.078 409.742C501.6 409.742 469.137 397.663 443.688 373.506C418.24 349.026 405.516 318.748 405.516 282.673C405.516 246.919 418.24 216.963 443.688 192.806C469.137 168.326 501.6 156.086 541.078 156.086C580.556 156.086 613.019 168.326 638.467 192.806C663.916 217.286 676.64 247.241 676.64 282.673C676.64 318.748 663.916 349.026 638.467 373.506Z" fill="white"></path> <path d="M727.537 406.938V158.89H795.563L866.525 252.234L937.977 158.89H1006V406.938H940.913V254.65L880.228 329.539H852.822L792.627 254.65V406.938H727.537Z" fill="white"></path> <path d="M1144.52 330.988C1157.24 343.872 1173.39 350.314 1192.97 350.314C1212.54 350.314 1228.69 343.872 1241.42 330.988C1254.14 318.104 1260.5 301.999 1260.5 282.673C1260.5 263.346 1254.14 247.402 1241.42 234.84C1228.69 221.956 1212.54 215.514 1192.97 215.514C1173.39 215.514 1157.24 221.956 1144.52 234.84C1131.79 247.402 1125.43 263.346 1125.43 282.673C1125.43 301.999 1131.79 318.104 1144.52 330.988ZM1290.36 373.506C1264.91 397.663 1232.44 409.742 1192.97 409.742C1153.49 409.742 1121.03 397.663 1095.58 373.506C1070.13 349.026 1057.4 318.748 1057.4 282.673C1057.4 246.919 1070.13 216.963 1095.58 192.806C1121.03 168.326 1153.49 156.086 1192.97 156.086C1232.44 156.086 1264.91 168.326 1290.36 192.806C1315.8 217.286 1328.53 247.241 1328.53 282.673C1328.53 318.748 1315.8 349.026 1290.36 373.506Z" fill="white"></path> <path d="M1379.43 406.938V158.89H1573.23V219.379H1448.43V406.938H1379.43Z" fill="white"></path> <path d="M1836.51 350.797C1842.39 350.797 1847.12 349.831 1850.71 347.899V397.663C1841.9 404.428 1829.5 407.81 1813.51 407.81C1785.78 407.81 1767.35 397.502 1758.21 376.888C1736.02 398.791 1707.97 409.742 1674.03 409.742C1647.28 409.742 1625.58 402.495 1608.94 388C1592.31 373.184 1583.99 353.535 1583.99 329.055C1583.99 303.287 1593.45 283.639 1612.37 270.111C1631.29 256.582 1653.97 249.818 1680.4 249.818C1707.8 249.818 1731.29 254.811 1750.87 264.796V257.548C1750.87 227.271 1729.34 212.132 1686.27 212.132C1660.17 212.132 1635.53 218.896 1612.37 232.424V175.412C1637.17 162.528 1667.35 156.086 1702.91 156.086C1737.82 156.086 1765.88 164.461 1787.08 181.21C1808.62 197.959 1819.38 221.151 1819.38 250.784V332.438C1819.38 344.677 1825.09 350.797 1836.51 350.797ZM1750.87 332.438V308.28C1737.49 298.939 1720.53 294.268 1699.97 294.268C1685.29 294.268 1673.54 297.006 1664.74 302.482C1656.25 307.636 1652.01 315.366 1652.01 325.673C1652.01 346.61 1666.53 357.078 1695.57 357.078C1720.04 357.078 1738.47 348.865 1750.87 332.438Z" fill="white"></path> <path d="M1937.86 406.938V219.379H1861.51V158.89H2084.18V219.379H2006.86V406.938H1937.86Z" fill="white"></path> <path d="M2195.95 330.988C2208.67 343.872 2224.82 350.314 2244.4 350.314C2263.98 350.314 2280.13 343.872 2292.85 330.988C2305.57 318.104 2311.94 301.999 2311.94 282.673C2311.94 263.346 2305.57 247.402 2292.85 234.84C2280.13 221.956 2263.98 215.514 2244.4 215.514C2224.82 215.514 2208.67 221.956 2195.95 234.84C2183.23 247.402 2176.86 263.346 2176.86 282.673C2176.86 301.999 2183.23 318.104 2195.95 330.988ZM2341.79 373.506C2316.34 397.663 2283.88 409.742 2244.4 409.742C2204.92 409.742 2172.46 397.663 2147.01 373.506C2121.56 349.026 2108.84 318.748 2108.84 282.673C2108.84 246.919 2121.56 216.963 2147.01 192.806C2172.46 168.326 2204.92 156.086 2244.4 156.086C2283.88 156.086 2316.34 168.326 2341.79 192.806C2367.24 217.286 2379.96 247.241 2379.96 282.673C2379.96 318.748 2367.24 349.026 2341.79 373.506Z" fill="white"></path> <path d="M2580.13 156.086C2613.4 156.086 2640.81 168.326 2662.34 192.806C2684.2 216.963 2695.13 247.08 2695.13 283.156C2695.13 318.909 2684.2 349.026 2662.34 373.506C2640.81 397.663 2613.4 409.742 2580.13 409.742C2545.54 409.742 2518.79 397.825 2499.86 373.989V500.092H2430.86V158.89H2499.86V191.839C2518.13 168.004 2544.89 156.086 2580.13 156.086ZM2560.55 215.514C2546.85 215.514 2534.61 219.057 2523.84 226.143C2513.4 232.908 2505.41 241.443 2499.86 251.751V314.561C2505.41 324.868 2513.4 333.404 2523.84 340.168C2534.61 346.932 2546.85 350.314 2560.55 350.314C2579.8 350.314 2595.62 343.872 2608.02 330.988C2620.42 318.104 2626.62 302.16 2626.62 283.156C2626.62 263.83 2620.42 247.724 2608.02 234.84C2595.62 221.956 2579.8 215.514 2560.55 215.514Z" fill="white"></path> <path d="M0 171.534C0 164.672 5.56277 159.109 12.4248 159.109H87.1567C94.0187 159.109 99.5815 164.672 99.5815 171.534V397.355C99.5815 404.217 94.0187 409.78 87.1567 409.78H12.4248C5.56276 409.78 0 404.217 0 397.355V171.534Z" fill="white"></path> <path d="M240.367 171.534C240.367 164.672 245.93 159.109 252.792 159.109H327.524C334.386 159.109 339.949 164.672 339.949 171.534V397.355C339.949 404.217 334.386 409.78 327.524 409.78H252.792C245.93 409.78 240.367 404.217 240.367 397.355V171.534Z" fill="white"></path> <path d="M29.6487 110.997L3.79403 59.8459C0.903219 54.1268 2.85842 47.1036 8.38995 43.8682C140.086 -33.1612 274.346 7.89392 331.37 43.4648C336.651 46.7585 338.218 53.5838 335.471 59.168C328.752 72.8283 318.209 94.9154 308.919 112.38C305.628 118.566 297.818 120.51 291.688 117.115C193.104 62.5107 95.4193 89.9531 48.0158 116.259C41.4718 119.89 33.0248 117.676 29.6487 110.997Z" fill="white"></path> <path fill-rule="evenodd" clip-rule="evenodd" d="M2903.61 90.0156C2837.73 90.0156 2784.33 143.418 2784.33 209.294V380.756C2784.33 446.631 2837.73 500.034 2903.61 500.034H3380.72C3446.6 500.034 3500 446.631 3500 380.756V209.294C3500 143.418 3446.6 90.0156 3380.72 90.0156H2903.61ZM3190.07 375.482C3211.05 389.511 3237.74 396.525 3270.13 396.525C3298.65 396.525 3321.26 390.019 3337.96 377.007C3354.87 363.791 3363.33 347.526 3363.33 328.211C3363.33 306.253 3352.53 289.784 3330.94 278.805C3337.66 275.349 3343.67 270.063 3348.97 262.947C3354.26 255.831 3356.91 247.495 3356.91 237.939C3356.91 219.437 3349.17 204.29 3333.69 192.498C3318.41 180.502 3297.63 174.504 3271.35 174.504C3245.89 174.504 3221.34 180.909 3197.71 193.718V240.989C3219.71 229.603 3243.34 223.91 3268.6 223.91C3279.4 223.91 3287.65 225.537 3293.35 228.79C3299.26 231.839 3302.21 236.007 3302.21 241.294C3302.21 253.086 3293.05 258.982 3274.71 258.982H3241.1V302.593H3268.29C3293.76 302.593 3306.49 308.998 3306.49 321.807C3306.49 329.533 3302.62 335.632 3294.88 340.105C3287.34 344.375 3276.54 346.51 3262.49 346.51C3250.27 346.51 3237.53 344.476 3224.29 340.41C3211.25 336.14 3199.85 330.346 3190.07 323.027V375.482ZM2921 344.07V415.545H2972.65V392.256H3101.6V415.545H3153.55V344.07H3125.43V178.774H2965.92V217.201C2965.92 274.739 2957.78 317.029 2941.48 344.07H2921ZM3070.43 344.07H3001.37C3013.39 312.759 3019.81 273.722 3020.62 226.96H3070.43V344.07Z" fill="white"></path> </svg> 