<?xml version="1.0" encoding="UTF-8"?> <svg xmlns="http://www.w3.org/2000/svg" width="11355" height="6435" viewBox="0 0 11355 6435" fill="none"> <path d="M7238 230.811C7238 223.736 7243.69 218 7250.71 218H7355.29C7362.31 218 7368 223.736 7368 230.811V604.189C7368 611.264 7362.31 617 7355.29 617H7250.71C7243.69 617 7238 611.264 7238 604.189V230.811Z" fill="#6117FF"></path> <path d="M7607 230.811C7607 223.736 7612.69 218 7619.71 218H7724.29C7731.31 218 7737 223.736 7737 230.811V604.189C7737 611.264 7731.31 617 7724.29 617H7619.71C7612.69 617 7607 611.264 7607 604.189V230.811Z" fill="#6117FF"></path> <path d="M7278.99 151.291L7243.41 83.0674C7240.37 77.247 7242.39 70.0373 7248.05 66.6467C7446.09 -51.9208 7638.44 13.308 7719.62 66.56C7724.93 70.0409 7726.49 76.9216 7723.49 82.4775C7714.14 99.7694 7698.99 127.456 7684.7 152.572C7681.14 158.829 7673 160.81 7666.71 157.217C7516.1 71.0906 7366.04 116.398 7297.82 156.357C7291.21 160.231 7282.52 158.049 7278.99 151.291Z" fill="#6117FF"></path> <path d="M0 230.811C0 223.736 5.69122 218 12.7117 218H117.288C124.309 218 130 223.736 130 230.811V604.189C130 611.264 124.309 617 117.288 617H12.7117C5.69121 617 0 611.264 0 604.189V230.811Z" fill="#6117FF"></path> <path d="M368 230.811C368 223.736 373.779 218 380.907 218H487.093C494.221 218 500 223.736 500 230.811V604.189C500 611.264 494.221 617 487.093 617H380.907C373.779 617 368 611.264 368 604.189V230.811Z" fill="#6117FF"></path> <path d="M41.8397 151.291L6.40363 83.0674C3.38045 77.247 5.38575 70.0373 11.0254 66.6467C208.241 -51.9208 399.795 13.308 480.646 66.56C485.931 70.0409 487.484 76.9216 484.494 82.4775C475.188 99.7694 460.1 127.456 445.869 152.572C442.323 158.829 434.212 160.81 427.955 157.217C277.965 71.0906 128.529 116.398 60.5898 156.357C54.0033 160.231 45.3501 158.049 41.8397 151.291Z" fill="#6117FF"></path> <path d="M9221.78 558C9214.72 558 9209 552.221 9209 545.093L9209 438.907C9209 431.779 9214.72 426 9221.78 426L9594.22 426C9601.28 426 9607 431.779 9607 438.907L9607 545.093C9607 552.221 9601.28 558 9594.22 558L9221.78 558Z" fill="#6117FF"></path> <path d="M9221.78 189C9214.72 189 9209 183.309 9209 176.288L9209 71.7117C9209 64.6912 9214.72 59 9221.78 59L9594.22 59C9601.28 59 9607 64.6912 9607 71.7117L9607 176.288C9607 183.309 9601.28 189 9594.22 189L9221.78 189Z" fill="#6117FF"></path> <path d="M9142.19 517.007L9073.11 552.591C9067.22 555.626 9059.92 553.613 9056.49 547.95C8936.43 349.914 9002.48 157.563 9056.4 76.3762C9059.92 71.0693 9066.89 69.51 9072.51 72.5125C9090.02 81.8573 9118.06 97.008 9143.49 111.298C9149.83 114.858 9151.83 123.003 9148.19 129.287C9060.98 279.9 9106.86 429.958 9147.32 498.179C9151.25 504.793 9149.04 513.482 9142.19 517.007Z" fill="#6117FF"></path> <path d="M1982.81 558C1975.74 558 1970 552.221 1970 545.093L1970 438.907C1970 431.779 1975.74 426 1982.81 426L2356.19 426C2363.26 426 2369 431.779 2369 438.907L2369 545.093C2369 552.221 2363.26 558 2356.19 558L1982.81 558Z" fill="#6117FF"></path> <path d="M1982.81 189C1975.74 189 1970 183.309 1970 176.288L1970 71.7117C1970 64.6912 1975.74 59 1982.81 59L2356.19 59C2363.26 59 2369 64.6912 2369 71.7117L2369 176.288C2369 183.309 2363.26 189 2356.19 189L1982.81 189Z" fill="#6117FF"></path> <path d="M1905.15 517.007L1835.63 552.591C1829.7 555.626 1822.36 553.613 1818.9 547.95C1698.1 349.914 1764.56 157.563 1818.82 76.3762C1822.36 71.0693 1829.37 69.51 1835.03 72.5125C1852.65 81.8573 1880.86 97.008 1906.45 111.298C1912.83 114.858 1914.84 123.003 1911.18 129.287C1823.43 279.9 1869.59 429.958 1910.31 498.179C1914.25 504.793 1912.03 513.482 1905.15 517.007Z" fill="#6117FF"></path> <path d="M4117 384.253C4117 391.293 4111.31 397 4104.29 397L3999.71 397C3992.69 397 3987 391.293 3987 384.253L3987 12.7467C3987 5.70686 3992.69 -1.91193e-05 3999.71 -1.85055e-05L4104.29 -9.36314e-06C4111.31 -8.74939e-06 4117 5.7069 4117 12.7467L4117 384.253Z" fill="#6117FF"></path> <path d="M3748 384.253C3748 391.293 3742.31 397 3735.29 397L3630.71 397C3623.69 397 3618 391.293 3618 384.253L3618 12.7467C3618 5.70686 3623.69 -1.91193e-05 3630.71 -1.85055e-05L3735.29 -9.36314e-06C3742.31 -8.74939e-06 3748 5.7069 3748 12.7467L3748 384.253Z" fill="#6117FF"></path> <path d="M4076.01 463.806L4111.59 532.888C4114.63 538.781 4112.61 546.082 4106.95 549.515C3908.91 669.574 3716.56 603.525 3635.38 549.603C3630.07 546.078 3628.51 539.111 3631.51 533.485C3640.86 515.976 3656.01 487.94 3670.3 462.509C3673.86 456.173 3682 454.168 3688.29 457.806C3838.9 545.015 3988.96 499.138 4057.18 458.676C4063.79 454.754 4072.48 456.963 4076.01 463.806Z" fill="#6117FF"></path> <path d="M11355 384.253C11355 391.293 11349.3 397 11342.3 397L11237.7 397C11230.7 397 11225 391.293 11225 384.253L11225 12.7467C11225 5.70686 11230.7 -1.91193e-05 11237.7 -1.85055e-05L11342.3 -9.36314e-06C11349.3 -8.74939e-06 11355 5.7069 11355 12.7467L11355 384.253Z" fill="#6117FF"></path> <path d="M10987 384.253C10987 391.293 10981.2 397 10974.1 397L10867.9 397C10860.8 397 10855 391.293 10855 384.253L10855 12.7467C10855 5.70686 10860.8 -1.92865e-05 10867.9 -1.86633e-05L10974.1 -9.38024e-06C10981.2 -8.75705e-06 10987 5.7069 10987 12.7467L10987 384.253Z" fill="#6117FF"></path> <path d="M11313.2 463.806L11348.6 532.888C11351.6 538.781 11349.6 546.082 11344 549.515C11146.8 669.574 10955.2 603.525 10874.4 549.603C10869.1 546.078 10867.5 539.111 10870.5 533.485C10879.8 515.976 10894.9 487.94 10909.1 462.509C10912.7 456.173 10920.8 454.168 10927 457.806C11077 545.015 11226.5 499.138 11294.4 458.676C11301 454.754 11309.6 456.963 11313.2 463.806Z" fill="#6117FF"></path> <path d="M5752.25 69C5759.29 69 5765 74.735 5765 81.8095L5765 187.191C5765 194.265 5759.29 200 5752.25 200L5380.75 200C5373.71 200 5368 194.265 5368 187.191L5368 81.8095C5368 74.735 5373.71 69 5380.75 69L5752.25 69Z" fill="#6117FF"></path> <path d="M5752.25 439C5759.29 439 5765 444.735 5765 451.809L5765 557.191C5765 564.265 5759.29 570 5752.25 570L5380.75 570C5373.71 570 5368 564.265 5368 557.191L5368 451.809C5368 444.735 5373.71 439 5380.75 439L5752.25 439Z" fill="#6117FF"></path> <path d="M5831.76 110.993L5900.41 75.4095C5906.27 72.3737 5913.52 74.3874 5916.93 80.0505C6036.25 278.086 5970.61 470.437 5917.02 551.624C5913.52 556.931 5906.59 558.49 5901 555.488C5883.6 546.143 5855.74 530.992 5830.47 516.702C5824.17 513.141 5822.18 504.997 5825.79 498.713C5912.46 348.1 5866.87 198.042 5826.66 129.821C5822.76 123.207 5824.96 114.518 5831.76 110.993Z" fill="#6117FF"></path> <path d="M0 2558.78C0 2551.72 5.69122 2546 12.7117 2546H117.288C124.309 2546 130 2551.72 130 2558.78V2931.22C130 2938.28 124.309 2944 117.288 2944H12.7117C5.69121 2944 0 2938.28 0 2931.22V2558.78Z" fill="#6117FF"></path> <path d="M368 2558.78C368 2551.72 373.779 2546 380.907 2546H487.093C494.221 2546 500 2551.72 500 2558.78V2931.22C500 2938.28 494.221 2944 487.093 2944H380.907C373.779 2944 368 2938.28 368 2931.22V2558.78Z" fill="#6117FF"></path> <path d="M41.8397 2479.24L6.40363 2410.59C3.38045 2404.73 5.38575 2397.48 11.0254 2394.07C208.241 2274.75 399.795 2340.39 480.646 2393.98C485.931 2397.48 487.484 2404.41 484.494 2410C475.188 2427.4 460.1 2455.26 445.869 2480.53C442.323 2486.83 434.212 2488.82 427.955 2485.21C277.965 2398.54 128.529 2444.13 60.5898 2484.34C54.0033 2488.24 45.3501 2486.04 41.8397 2479.24Z" fill="#6117FF"></path> <path d="M0 4885.78C0 4878.72 5.69122 4873 12.7117 4873H117.288C124.309 4873 130 4878.72 130 4885.78V5258.22C130 5265.28 124.309 5271 117.288 5271H12.7117C5.69121 5271 0 5265.28 0 5258.22V4885.78Z" fill="#6117FF"></path> <path d="M368 4885.78C368 4878.72 373.779 4873 380.907 4873H487.093C494.221 4873 500 4878.72 500 4885.78V5258.22C500 5265.28 494.221 5271 487.093 5271H380.907C373.779 5271 368 5265.28 368 5258.22V4885.78Z" fill="#6117FF"></path> <path d="M41.8397 4806.24L6.40363 4737.59C3.38045 4731.73 5.38575 4724.48 11.0254 4721.07C208.241 4601.75 399.795 4667.39 480.646 4720.98C485.931 4724.48 487.484 4731.41 484.494 4737C475.188 4754.4 460.1 4782.26 445.869 4807.53C442.323 4813.83 434.212 4815.82 427.955 4812.21C277.965 4725.54 128.529 4771.13 60.5898 4811.34C54.0033 4815.24 45.3501 4813.04 41.8397 4806.24Z" fill="#6117FF"></path> <path d="M2865 1394.81C2865 1387.74 2870.69 1382 2877.71 1382H2982.29C2989.31 1382 2995 1387.74 2995 1394.81V1768.19C2995 1775.26 2989.31 1781 2982.29 1781H2877.71C2870.69 1781 2865 1775.26 2865 1768.19V1394.81Z" fill="#6117FF"></path> <path d="M3233 1394.81C3233 1387.74 3238.69 1382 3245.71 1382H3350.29C3357.31 1382 3363 1387.74 3363 1394.81V1768.19C3363 1775.26 3357.31 1781 3350.29 1781H3245.71C3238.69 1781 3233 1775.26 3233 1768.19V1394.81Z" fill="#6117FF"></path> <path d="M2904.99 1316.19L2869.41 1247.11C2866.37 1241.22 2868.39 1233.92 2874.05 1230.49C3072.09 1110.43 3264.44 1176.48 3345.62 1230.4C3350.93 1233.92 3352.49 1240.89 3349.49 1246.51C3340.14 1264.02 3324.99 1292.06 3310.7 1317.49C3307.14 1323.83 3299 1325.83 3292.71 1322.19C3142.1 1234.98 2992.04 1280.86 2923.82 1321.32C2917.21 1325.25 2908.52 1323.04 2904.99 1316.19Z" fill="#6117FF"></path> <path d="M2865 3721.81C2865 3714.74 2870.69 3709 2877.71 3709H2982.29C2989.31 3709 2995 3714.74 2995 3721.81V4095.19C2995 4102.26 2989.31 4108 2982.29 4108H2877.71C2870.69 4108 2865 4102.26 2865 4095.19V3721.81Z" fill="#6117FF"></path> <path d="M3233 3721.81C3233 3714.74 3238.69 3709 3245.71 3709H3350.29C3357.31 3709 3363 3714.74 3363 3721.81V4095.19C3363 4102.26 3357.31 4108 3350.29 4108H3245.71C3238.69 4108 3233 4102.26 3233 4095.19V3721.81Z" fill="#6117FF"></path> <path d="M2904.99 3643.19L2869.41 3574.11C2866.37 3568.22 2868.39 3560.92 2874.05 3557.49C3072.09 3437.43 3264.44 3503.48 3345.62 3557.4C3350.93 3560.92 3352.49 3567.89 3349.49 3573.51C3340.14 3591.02 3324.99 3619.06 3310.7 3644.49C3307.14 3650.83 3299 3652.83 3292.71 3649.19C3142.1 3561.98 2992.04 3607.86 2923.82 3648.32C2917.21 3652.25 2908.52 3650.04 2904.99 3643.19Z" fill="#6117FF"></path> <path d="M2865 6048.81C2865 6041.74 2870.69 6036 2877.71 6036H2982.29C2989.31 6036 2995 6041.74 2995 6048.81V6422.19C2995 6429.26 2989.31 6435 2982.29 6435H2877.71C2870.69 6435 2865 6429.26 2865 6422.19V6048.81Z" fill="#6117FF"></path> <path d="M3233 6048.81C3233 6041.74 3238.69 6036 3245.71 6036H3350.29C3357.31 6036 3363 6041.74 3363 6048.81V6422.19C3363 6429.26 3357.31 6435 3350.29 6435H3245.71C3238.69 6435 3233 6429.26 3233 6422.19V6048.81Z" fill="#6117FF"></path> <path d="M2904.99 5969.29L2869.41 5901.07C2866.37 5895.25 2868.39 5888.04 2874.05 5884.65C3072.09 5766.08 3264.44 5831.31 3345.62 5884.56C3350.93 5888.04 3352.49 5894.92 3349.49 5900.48C3340.14 5917.77 3324.99 5945.46 3310.7 5970.57C3307.14 5976.83 3299 5978.81 3292.71 5975.22C3142.1 5889.09 2992.04 5934.4 2923.82 5974.36C2917.21 5978.23 2908.52 5976.05 2904.99 5969.29Z" fill="#6117FF"></path> <path d="M7238 2558.78C7238 2551.72 7243.69 2546 7250.71 2546H7355.29C7362.31 2546 7368 2551.72 7368 2558.78V2931.22C7368 2938.28 7362.31 2944 7355.29 2944H7250.71C7243.69 2944 7238 2938.28 7238 2931.22V2558.78Z" fill="#6117FF"></path> <path d="M7607 2558.78C7607 2551.72 7612.69 2546 7619.71 2546H7724.29C7731.31 2546 7737 2551.72 7737 2558.78V2931.22C7737 2938.28 7731.31 2944 7724.29 2944H7619.71C7612.69 2944 7607 2938.28 7607 2931.22V2558.78Z" fill="#6117FF"></path> <path d="M7278.99 2479.24L7243.41 2410.59C7240.37 2404.73 7242.39 2397.48 7248.05 2394.07C7446.09 2274.75 7638.44 2340.39 7719.62 2393.98C7724.93 2397.48 7726.49 2404.41 7723.49 2410C7714.14 2427.4 7698.99 2455.26 7684.7 2480.53C7681.14 2486.83 7673 2488.82 7666.71 2485.21C7516.1 2398.54 7366.04 2444.13 7297.82 2484.34C7291.21 2488.24 7282.52 2486.04 7278.99 2479.24Z" fill="#6117FF"></path> <path d="M7238 4885.78C7238 4878.72 7243.69 4873 7250.71 4873H7355.29C7362.31 4873 7368 4878.72 7368 4885.78V5258.22C7368 5265.28 7362.31 5271 7355.29 5271H7250.71C7243.69 5271 7238 5265.28 7238 5258.22V4885.78Z" fill="#6117FF"></path> <path d="M7607 4885.78C7607 4878.72 7612.69 4873 7619.71 4873H7724.29C7731.31 4873 7737 4878.72 7737 4885.78V5258.22C7737 5265.28 7731.31 5271 7724.29 5271H7619.71C7612.69 5271 7607 5265.28 7607 5258.22V4885.78Z" fill="#6117FF"></path> <path d="M7278.99 4806.24L7243.41 4737.59C7240.37 4731.73 7242.39 4724.48 7248.05 4721.07C7446.09 4601.75 7638.44 4667.39 7719.62 4720.98C7724.93 4724.48 7726.49 4731.41 7723.49 4737C7714.14 4754.4 7698.99 4782.26 7684.7 4807.53C7681.14 4813.83 7673 4815.82 7666.71 4812.21C7516.1 4725.54 7366.04 4771.13 7297.82 4811.34C7291.21 4815.24 7282.52 4813.04 7278.99 4806.24Z" fill="#6117FF"></path> <path d="M10102 1394.81C10102 1387.74 10107.7 1382 10114.8 1382H10220.2C10227.3 1382 10233 1387.74 10233 1394.81V1768.19C10233 1775.26 10227.3 1781 10220.2 1781H10114.8C10107.7 1781 10102 1775.26 10102 1768.19V1394.81Z" fill="#6117FF"></path> <path d="M10470 1394.81C10470 1387.74 10475.8 1382 10482.9 1382H10589.1C10596.2 1382 10602 1387.74 10602 1394.81V1768.19C10602 1775.26 10596.2 1781 10589.1 1781H10482.9C10475.8 1781 10470 1775.26 10470 1768.19V1394.81Z" fill="#6117FF"></path> <path d="M10142 1316.19L10106.4 1247.11C10103.4 1241.22 10105.4 1233.92 10111.1 1230.49C10309.1 1110.43 10501.4 1176.48 10582.6 1230.4C10587.9 1233.92 10589.5 1240.89 10586.5 1246.51C10577.1 1264.02 10562 1292.06 10547.7 1317.49C10544.1 1323.83 10536 1325.83 10529.7 1322.19C10379.1 1234.98 10229 1280.86 10160.8 1321.32C10154.2 1325.25 10145.5 1323.04 10142 1316.19Z" fill="#6117FF"></path> <path d="M10102 3721.81C10102 3714.74 10107.7 3709 10114.8 3709H10220.2C10227.3 3709 10233 3714.74 10233 3721.81V4095.19C10233 4102.26 10227.3 4108 10220.2 4108H10114.8C10107.7 4108 10102 4102.26 10102 4095.19V3721.81Z" fill="#6117FF"></path> <path d="M10470 3721.81C10470 3714.74 10475.8 3709 10482.9 3709H10589.1C10596.2 3709 10602 3714.74 10602 3721.81V4095.19C10602 4102.26 10596.2 4108 10589.1 4108H10482.9C10475.8 4108 10470 4102.26 10470 4095.19V3721.81Z" fill="#6117FF"></path> <path d="M10142 3643.19L10106.4 3574.11C10103.4 3568.22 10105.4 3560.92 10111.1 3557.49C10309.1 3437.43 10501.4 3503.48 10582.6 3557.4C10587.9 3560.92 10589.5 3567.89 10586.5 3573.51C10577.1 3591.02 10562 3619.06 10547.7 3644.49C10544.1 3650.83 10536 3652.83 10529.7 3649.19C10379.1 3561.98 10229 3607.86 10160.8 3648.32C10154.2 3652.25 10145.5 3650.04 10142 3643.19Z" fill="#6117FF"></path> <path d="M10102 6048.81C10102 6041.74 10107.7 6036 10114.8 6036H10220.2C10227.3 6036 10233 6041.74 10233 6048.81V6422.19C10233 6429.26 10227.3 6435 10220.2 6435H10114.8C10107.7 6435 10102 6429.26 10102 6422.19V6048.81Z" fill="#6117FF"></path> <path d="M10470 6048.81C10470 6041.74 10475.8 6036 10482.9 6036H10589.1C10596.2 6036 10602 6041.74 10602 6048.81V6422.19C10602 6429.26 10596.2 6435 10589.1 6435H10482.9C10475.8 6435 10470 6429.26 10470 6422.19V6048.81Z" fill="#6117FF"></path> <path d="M10142 5969.29L10106.4 5901.07C10103.4 5895.25 10105.4 5888.04 10111.1 5884.65C10309.1 5766.08 10501.4 5831.31 10582.6 5884.56C10587.9 5888.04 10589.5 5894.92 10586.5 5900.48C10577.1 5917.77 10562 5945.46 10547.7 5970.57C10544.1 5976.83 10536 5978.81 10529.7 5975.22C10379.1 5889.09 10229 5934.4 10160.8 5974.36C10154.2 5978.23 10145.5 5976.05 10142 5969.29Z" fill="#6117FF"></path> <path d="M1982.81 2885C1975.74 2885 1970 2879.26 1970 2872.19L1970 2766.81C1970 2759.74 1975.74 2754 1982.81 2754L2356.19 2754C2363.26 2754 2369 2759.74 2369 2766.81L2369 2872.19C2369 2879.26 2363.26 2885 2356.19 2885L1982.81 2885Z" fill="#6117FF"></path> <path d="M1982.81 2516C1975.74 2516 1970 2510.31 1970 2503.29L1970 2398.71C1970 2391.69 1975.74 2386 1982.81 2386L2356.19 2386C2363.26 2386 2369 2391.69 2369 2398.71L2369 2503.29C2369 2510.31 2363.26 2516 2356.19 2516L1982.81 2516Z" fill="#6117FF"></path> <path d="M1905.15 2844.93L1835.63 2880.59C1829.7 2883.63 1822.36 2881.61 1818.9 2875.94C1698.1 2677.49 1764.56 2484.74 1818.82 2403.39C1822.36 2398.07 1829.37 2396.51 1835.03 2399.52C1852.65 2408.88 1880.86 2424.06 1906.45 2438.38C1912.83 2441.95 1914.84 2450.11 1911.18 2456.41C1823.43 2607.33 1869.59 2757.7 1910.31 2826.06C1914.25 2832.69 1912.03 2841.4 1905.15 2844.93Z" fill="#6117FF"></path> <path d="M1982.81 5212C1975.74 5212 1970 5206.31 1970 5199.29L1970 5094.71C1970 5087.69 1975.74 5082 1982.81 5082L2356.19 5082C2363.26 5082 2369 5087.69 2369 5094.71L2369 5199.29C2369 5206.31 2363.26 5212 2356.19 5212L1982.81 5212Z" fill="#6117FF"></path> <path d="M1982.81 4844C1975.74 4844 1970 4838.26 1970 4831.19L1970 4725.81C1970 4718.74 1975.74 4713 1982.81 4713L2356.19 4713C2363.26 4713 2369 4718.74 2369 4725.81L2369 4831.19C2369 4838.26 2363.26 4844 2356.19 4844L1982.81 4844Z" fill="#6117FF"></path> <path d="M1905.15 5172.01L1835.63 5207.59C1829.7 5210.63 1822.36 5208.61 1818.9 5202.95C1698.1 5004.91 1764.56 4812.56 1818.82 4731.38C1822.36 4726.07 1829.37 4724.51 1835.03 4727.51C1852.65 4736.86 1880.86 4752.01 1906.45 4766.3C1912.83 4769.86 1914.84 4778 1911.18 4784.29C1823.43 4934.9 1869.59 5084.96 1910.31 5153.18C1914.25 5159.79 1912.03 5168.48 1905.15 5172.01Z" fill="#6117FF"></path> <path d="M4847.81 1722C4840.74 1722 4835 1716.26 4835 1709.19L4835 1603.81C4835 1596.74 4840.74 1591 4847.81 1591L5221.19 1591C5228.26 1591 5234 1596.74 5234 1603.81L5234 1709.19C5234 1716.26 5228.26 1722 5221.19 1722L4847.81 1722Z" fill="#6117FF"></path> <path d="M4847.81 1353C4840.74 1353 4835 1347.26 4835 1340.19L4835 1234.81C4835 1227.74 4840.74 1222 4847.81 1222L5221.19 1222C5228.26 1222 5234 1227.74 5234 1234.81L5234 1340.19C5234 1347.26 5228.26 1353 5221.19 1353L4847.81 1353Z" fill="#6117FF"></path> <path d="M4768.24 1679.08L4699.59 1714.59C4693.73 1717.62 4686.48 1715.61 4683.07 1709.96C4563.75 1512.34 4629.39 1320.38 4682.98 1239.37C4686.48 1234.07 4693.41 1232.51 4699 1235.51C4716.4 1244.83 4744.26 1259.95 4769.53 1274.21C4775.83 1277.77 4777.82 1285.9 4774.21 1292.17C4687.54 1442.47 4733.13 1592.21 4773.34 1660.29C4777.24 1666.89 4775.04 1675.57 4768.24 1679.08Z" fill="#6117FF"></path> <path d="M4847.81 4049C4840.74 4049 4835 4043.31 4835 4036.29L4835 3931.71C4835 3924.69 4840.74 3919 4847.81 3919L5221.19 3919C5228.26 3919 5234 3924.69 5234 3931.71L5234 4036.29C5234 4043.31 5228.26 4049 5221.19 4049L4847.81 4049Z" fill="#6117FF"></path> <path d="M4847.81 3680C4840.74 3680 4835 3674.26 4835 3667.19L4835 3561.81C4835 3554.74 4840.74 3549 4847.81 3549L5221.19 3549C5228.26 3549 5234 3554.74 5234 3561.81L5234 3667.19C5234 3674.26 5228.26 3680 5221.19 3680L4847.81 3680Z" fill="#6117FF"></path> <path d="M4768.24 4007.01L4699.59 4042.59C4693.73 4045.63 4686.48 4043.61 4683.07 4037.95C4563.75 3839.91 4629.39 3647.56 4682.98 3566.38C4686.48 3561.07 4693.41 3559.51 4699 3562.51C4716.4 3571.86 4744.26 3587.01 4769.53 3601.3C4775.83 3604.86 4777.82 3613 4774.21 3619.29C4687.54 3769.9 4733.13 3919.96 4773.34 3988.18C4777.24 3994.79 4775.04 4003.48 4768.24 4007.01Z" fill="#6117FF"></path> <path d="M4847.81 6376C4840.74 6376 4835 6370.26 4835 6363.19L4835 6257.81C4835 6250.74 4840.74 6245 4847.81 6245L5221.19 6245C5228.26 6245 5234 6250.74 5234 6257.81L5234 6363.19C5234 6370.26 5228.26 6376 5221.19 6376L4847.81 6376Z" fill="#6117FF"></path> <path d="M4847.81 6007C4840.74 6007 4835 6001.31 4835 5994.29L4835 5889.71C4835 5882.69 4840.74 5877 4847.81 5877L5221.19 5877C5228.26 5877 5234 5882.69 5234 5889.71L5234 5994.29C5234 6001.31 5228.26 6007 5221.19 6007L4847.81 6007Z" fill="#6117FF"></path> <path d="M4768.24 6335.01L4699.59 6370.59C4693.73 6373.63 4686.48 6371.61 4683.07 6365.95C4563.75 6167.91 4629.39 5975.56 4682.98 5894.38C4686.48 5889.07 4693.41 5887.51 4699 5890.51C4716.4 5899.86 4744.26 5915.01 4769.53 5929.3C4775.83 5932.86 4777.82 5941 4774.21 5947.29C4687.54 6097.9 4733.13 6247.96 4773.34 6316.18C4777.24 6322.79 4775.04 6331.48 4768.24 6335.01Z" fill="#6117FF"></path> <path d="M9221.78 2885C9214.72 2885 9209 2879.26 9209 2872.19L9209 2766.81C9209 2759.74 9214.72 2754 9221.78 2754L9594.22 2754C9601.28 2754 9607 2759.74 9607 2766.81L9607 2872.19C9607 2879.26 9601.28 2885 9594.22 2885L9221.78 2885Z" fill="#6117FF"></path> <path d="M9221.78 2516C9214.72 2516 9209 2510.31 9209 2503.29L9209 2398.71C9209 2391.69 9214.72 2386 9221.78 2386L9594.22 2386C9601.28 2386 9607 2391.69 9607 2398.71L9607 2503.29C9607 2510.31 9601.28 2516 9594.22 2516L9221.78 2516Z" fill="#6117FF"></path> <path d="M9142.19 2844.93L9073.11 2880.59C9067.22 2883.63 9059.92 2881.61 9056.49 2875.94C8936.43 2677.49 9002.48 2484.74 9056.4 2403.39C9059.92 2398.07 9066.89 2396.51 9072.51 2399.52C9090.02 2408.88 9118.06 2424.06 9143.49 2438.38C9149.83 2441.95 9151.83 2450.11 9148.19 2456.41C9060.98 2607.33 9106.86 2757.7 9147.32 2826.06C9151.25 2832.69 9149.04 2841.4 9142.19 2844.93Z" fill="#6117FF"></path> <path d="M9221.78 5212C9214.72 5212 9209 5206.31 9209 5199.29L9209 5094.71C9209 5087.69 9214.72 5082 9221.78 5082L9594.22 5082C9601.28 5082 9607 5087.69 9607 5094.71L9607 5199.29C9607 5206.31 9601.28 5212 9594.22 5212L9221.78 5212Z" fill="#6117FF"></path> <path d="M9221.78 4844C9214.72 4844 9209 4838.26 9209 4831.19L9209 4725.81C9209 4718.74 9214.72 4713 9221.78 4713L9594.22 4713C9601.28 4713 9607 4718.74 9607 4725.81L9607 4831.19C9607 4838.26 9601.28 4844 9594.22 4844L9221.78 4844Z" fill="#6117FF"></path> <path d="M9142.19 5172.01L9073.11 5207.59C9067.22 5210.63 9059.92 5208.61 9056.49 5202.95C8936.43 5004.91 9002.48 4812.56 9056.4 4731.38C9059.92 4726.07 9066.89 4724.51 9072.51 4727.51C9090.02 4736.86 9118.06 4752.01 9143.49 4766.3C9149.83 4769.86 9151.83 4778 9148.19 4784.29C9060.98 4934.9 9106.86 5084.96 9147.32 5153.18C9151.25 5159.79 9149.04 5168.48 9142.19 5172.01Z" fill="#6117FF"></path> <path d="M4117 2712.22C4117 2719.28 4111.31 2725 4104.29 2725L3999.71 2725C3992.69 2725 3987 2719.28 3987 2712.22L3987 2339.78C3987 2332.72 3992.69 2327 3999.71 2327L4104.29 2327C4111.31 2327 4117 2332.72 4117 2339.78L4117 2712.22Z" fill="#6117FF"></path> <path d="M3748 2712.22C3748 2719.28 3742.31 2725 3735.29 2725L3630.71 2725C3623.69 2725 3618 2719.28 3618 2712.22L3618 2339.78C3618 2332.72 3623.69 2327 3630.71 2327L3735.29 2327C3742.31 2327 3748 2332.72 3748 2339.78L3748 2712.22Z" fill="#6117FF"></path> <path d="M4076.01 2791.76L4111.59 2860.41C4114.63 2866.27 4112.61 2873.52 4106.95 2876.93C3908.91 2996.25 3716.56 2930.61 3635.38 2877.02C3630.07 2873.52 3628.51 2866.59 3631.51 2861C3640.86 2843.6 3656.01 2815.74 3670.3 2790.47C3673.86 2784.17 3682 2782.18 3688.29 2785.79C3838.9 2872.46 3988.96 2826.87 4057.18 2786.66C4063.79 2782.76 4072.48 2784.96 4076.01 2791.76Z" fill="#6117FF"></path> <path d="M4117 5039.22C4117 5046.28 4111.31 5052 4104.29 5052L3999.71 5052C3992.69 5052 3987 5046.28 3987 5039.22L3987 4666.78C3987 4659.72 3992.69 4654 3999.71 4654L4104.29 4654C4111.31 4654 4117 4659.72 4117 4666.78L4117 5039.22Z" fill="#6117FF"></path> <path d="M3748 5039.22C3748 5046.28 3742.31 5052 3735.29 5052L3630.71 5052C3623.69 5052 3618 5046.28 3618 5039.22L3618 4666.78C3618 4659.72 3623.69 4654 3630.71 4654L3735.29 4654C3742.31 4654 3748 4659.72 3748 4666.78L3748 5039.22Z" fill="#6117FF"></path> <path d="M4076.01 5118.76L4111.59 5187.41C4114.63 5193.27 4112.61 5200.52 4106.95 5203.93C3908.91 5323.25 3716.56 5257.61 3635.38 5204.02C3630.07 5200.52 3628.51 5193.59 3631.51 5188C3640.86 5170.6 3656.01 5142.74 3670.3 5117.47C3673.86 5111.17 3682 5109.18 3688.29 5112.79C3838.9 5199.46 3988.96 5153.87 4057.18 5113.66C4063.79 5109.76 4072.48 5111.96 4076.01 5118.76Z" fill="#6117FF"></path> <path d="M6982 1549.19C6982 1556.26 6976.26 1562 6969.19 1562L6863.81 1562C6856.73 1562 6851 1556.26 6851 1549.19L6851 1175.81C6851 1168.74 6856.74 1163 6863.81 1163L6969.19 1163C6976.27 1163 6982 1168.74 6982 1175.81L6982 1549.19Z" fill="#6117FF"></path> <path d="M6613 1549.19C6613 1556.26 6607.26 1562 6600.19 1562L6494.81 1562C6487.73 1562 6482 1556.26 6482 1549.19L6482 1175.81C6482 1168.74 6487.74 1163 6494.81 1163L6600.19 1163C6607.27 1163 6613 1168.74 6613 1175.81L6613 1549.19Z" fill="#6117FF"></path> <path d="M6941.01 1628.76L6976.59 1697.41C6979.63 1703.27 6977.61 1710.52 6971.95 1713.93C6773.91 1833.25 6581.56 1767.61 6500.38 1714.02C6495.07 1710.52 6493.51 1703.59 6496.51 1698C6505.86 1680.6 6521.01 1652.74 6535.3 1627.47C6538.86 1621.17 6547 1619.18 6553.29 1622.79C6703.9 1709.46 6853.96 1663.87 6922.18 1623.66C6928.79 1619.76 6937.48 1621.96 6941.01 1628.76Z" fill="#6117FF"></path> <path d="M6982 3876.19C6982 3883.26 6976.26 3889 6969.19 3889L6863.81 3889C6856.73 3889 6851 3883.26 6851 3876.19L6851 3502.81C6851 3495.74 6856.74 3490 6863.81 3490L6969.19 3490C6976.27 3490 6982 3495.74 6982 3502.81L6982 3876.19Z" fill="#6117FF"></path> <path d="M6613 3876.19C6613 3883.26 6607.26 3889 6600.19 3889L6494.81 3889C6487.73 3889 6482 3883.26 6482 3876.19L6482 3502.81C6482 3495.74 6487.74 3490 6494.81 3490L6600.19 3490C6607.27 3490 6613 3495.74 6613 3502.81L6613 3876.19Z" fill="#6117FF"></path> <path d="M6941.01 3953.85L6976.59 4023.37C6979.63 4029.3 6977.61 4036.64 6971.95 4040.1C6773.91 4160.9 6581.56 4094.44 6500.38 4040.18C6495.07 4036.64 6493.51 4029.63 6496.51 4023.97C6505.86 4006.35 6521.01 3978.14 6535.3 3952.55C6538.86 3946.17 6547 3944.16 6553.29 3947.82C6703.9 4035.57 6853.96 3989.41 6922.18 3948.69C6928.79 3944.75 6937.48 3946.97 6941.01 3953.85Z" fill="#6117FF"></path> <path d="M6982 6204.19C6982 6211.26 6976.26 6217 6969.19 6217L6863.81 6217C6856.73 6217 6851 6211.26 6851 6204.19L6851 5830.81C6851 5823.74 6856.74 5818 6863.81 5818L6969.19 5818C6976.27 5818 6982 5823.74 6982 5830.81L6982 6204.19Z" fill="#6117FF"></path> <path d="M6613 6204.19C6613 6211.26 6607.26 6217 6600.19 6217L6494.81 6217C6487.73 6217 6482 6211.26 6482 6204.19L6482 5830.81C6482 5823.74 6487.74 5818 6494.81 5818L6600.19 5818C6607.27 5818 6613 5823.74 6613 5830.81L6613 6204.19Z" fill="#6117FF"></path> <path d="M6941.01 6281.81L6976.59 6350.89C6979.63 6356.78 6977.61 6364.08 6971.95 6367.52C6773.91 6487.57 6581.56 6421.52 6500.38 6367.6C6495.07 6364.08 6493.51 6357.11 6496.51 6351.49C6505.86 6333.98 6521.01 6305.94 6535.3 6280.51C6538.86 6274.17 6547 6272.17 6553.29 6275.81C6703.9 6363.02 6853.96 6317.14 6922.18 6276.68C6928.79 6272.75 6937.48 6274.96 6941.01 6281.81Z" fill="#6117FF"></path> <path d="M11355 2712.22C11355 2719.28 11349.3 2725 11342.3 2725L11237.7 2725C11230.7 2725 11225 2719.28 11225 2712.22L11225 2339.78C11225 2332.72 11230.7 2327 11237.7 2327L11342.3 2327C11349.3 2327 11355 2332.72 11355 2339.78L11355 2712.22Z" fill="#6117FF"></path> <path d="M10987 2712.22C10987 2719.28 10981.2 2725 10974.1 2725L10867.9 2725C10860.8 2725 10855 2719.28 10855 2712.22L10855 2339.78C10855 2332.72 10860.8 2327 10867.9 2327L10974.1 2327C10981.2 2327 10987 2332.72 10987 2339.78L10987 2712.22Z" fill="#6117FF"></path> <path d="M11313.2 2791.76L11348.6 2860.41C11351.6 2866.27 11349.6 2873.52 11344 2876.93C11146.8 2996.25 10955.2 2930.61 10874.4 2877.02C10869.1 2873.52 10867.5 2866.59 10870.5 2861C10879.8 2843.6 10894.9 2815.74 10909.1 2790.47C10912.7 2784.17 10920.8 2782.18 10927 2785.79C11077 2872.46 11226.5 2826.87 11294.4 2786.66C11301 2782.76 11309.6 2784.96 11313.2 2791.76Z" fill="#6117FF"></path> <path d="M11355 5039.22C11355 5046.28 11349.3 5052 11342.3 5052L11237.7 5052C11230.7 5052 11225 5046.28 11225 5039.22L11225 4666.78C11225 4659.72 11230.7 4654 11237.7 4654L11342.3 4654C11349.3 4654 11355 4659.72 11355 4666.78L11355 5039.22Z" fill="#6117FF"></path> <path d="M10987 5039.22C10987 5046.28 10981.2 5052 10974.1 5052L10867.9 5052C10860.8 5052 10855 5046.28 10855 5039.22L10855 4666.78C10855 4659.72 10860.8 4654 10867.9 4654L10974.1 4654C10981.2 4654 10987 4659.72 10987 4666.78L10987 5039.22Z" fill="#6117FF"></path> <path d="M11313.2 5118.76L11348.6 5187.41C11351.6 5193.27 11349.6 5200.52 11344 5203.93C11146.8 5323.25 10955.2 5257.61 10874.4 5204.02C10869.1 5200.52 10867.5 5193.59 10870.5 5188C10879.8 5170.6 10894.9 5142.74 10909.1 5117.47C10912.7 5111.17 10920.8 5109.18 10927 5112.79C11077 5199.46 11226.5 5153.87 11294.4 5113.66C11301 5109.76 11309.6 5111.96 11313.2 5118.76Z" fill="#6117FF"></path> <path d="M1426 1549.19C1426 1556.26 1420.26 1562 1413.19 1562L1307.81 1562C1300.73 1562 1295 1556.26 1295 1549.19L1295 1175.81C1295 1168.74 1300.74 1163 1307.81 1163L1413.19 1163C1420.27 1163 1426 1168.74 1426 1175.81L1426 1549.19Z" fill="#6117FF"></path> <path d="M1057 1549.19C1057 1556.26 1051.31 1562 1044.29 1562L939.712 1562C932.691 1562 927 1556.26 927 1549.19L927 1175.81C927 1168.74 932.691 1163 939.712 1163L1044.29 1163C1051.31 1163 1057 1168.74 1057 1175.81L1057 1549.19Z" fill="#6117FF"></path> <path d="M1385.93 1628.76L1421.59 1697.41C1424.63 1703.27 1422.61 1710.52 1416.94 1713.93C1218.49 1833.25 1025.74 1767.61 944.387 1714.02C939.069 1710.52 937.507 1703.59 940.516 1698C949.88 1680.6 965.062 1652.74 979.381 1627.47C982.949 1621.17 991.111 1619.18 997.407 1622.79C1148.33 1709.46 1298.7 1663.87 1367.06 1623.66C1373.69 1619.76 1382.4 1621.96 1385.93 1628.76Z" fill="#6117FF"></path> <path d="M1426 3876.19C1426 3883.26 1420.26 3889 1413.19 3889L1307.81 3889C1300.73 3889 1295 3883.26 1295 3876.19L1295 3502.81C1295 3495.74 1300.74 3490 1307.81 3490L1413.19 3490C1420.27 3490 1426 3495.74 1426 3502.81L1426 3876.19Z" fill="#6117FF"></path> <path d="M1057 3876.19C1057 3883.26 1051.31 3889 1044.29 3889L939.712 3889C932.691 3889 927 3883.26 927 3876.19L927 3502.81C927 3495.74 932.691 3490 939.712 3490L1044.29 3490C1051.31 3490 1057 3495.74 1057 3502.81L1057 3876.19Z" fill="#6117FF"></path> <path d="M1385.93 3953.85L1421.59 4023.37C1424.63 4029.3 1422.61 4036.64 1416.94 4040.1C1218.49 4160.9 1025.74 4094.44 944.387 4040.18C939.069 4036.64 937.507 4029.63 940.516 4023.97C949.88 4006.35 965.062 3978.14 979.381 3952.55C982.949 3946.17 991.111 3944.16 997.407 3947.82C1148.33 4035.57 1298.7 3989.41 1367.06 3948.69C1373.69 3944.75 1382.4 3946.97 1385.93 3953.85Z" fill="#6117FF"></path> <path d="M1426 6204.19C1426 6211.26 1420.26 6217 1413.19 6217L1307.81 6217C1300.73 6217 1295 6211.26 1295 6204.19L1295 5830.81C1295 5823.74 1300.74 5818 1307.81 5818L1413.19 5818C1420.27 5818 1426 5823.74 1426 5830.81L1426 6204.19Z" fill="#6117FF"></path> <path d="M1057 6204.19C1057 6211.26 1051.31 6217 1044.29 6217L939.712 6217C932.691 6217 927 6211.26 927 6204.19L927 5830.81C927 5823.74 932.691 5818 939.712 5818L1044.29 5818C1051.31 5818 1057 5823.74 1057 5830.81L1057 6204.19Z" fill="#6117FF"></path> <path d="M1385.93 6281.81L1421.59 6350.89C1424.63 6356.78 1422.61 6364.08 1416.94 6367.52C1218.49 6487.57 1025.74 6421.52 944.387 6367.6C939.069 6364.08 937.507 6357.11 940.516 6351.49C949.88 6333.98 965.062 6305.94 979.381 6280.51C982.949 6274.17 991.111 6272.17 997.407 6275.81C1148.33 6363.02 1298.7 6317.14 1367.06 6276.68C1373.69 6272.75 1382.4 6274.96 1385.93 6281.81Z" fill="#6117FF"></path> <path d="M5752.25 2397C5759.29 2397 5765 2402.74 5765 2409.81L5765 2515.19C5765 2522.27 5759.29 2528 5752.25 2528L5380.75 2528C5373.71 2528 5368 2522.26 5368 2515.19L5368 2409.81C5368 2402.73 5373.71 2397 5380.75 2397L5752.25 2397Z" fill="#6117FF"></path> <path d="M5752.25 2765C5759.29 2765 5765 2770.78 5765 2777.91L5765 2884.09C5765 2891.22 5759.29 2897 5752.25 2897L5380.75 2897C5373.71 2897 5368 2891.22 5368 2884.09L5368 2777.91C5368 2770.78 5373.71 2765 5380.75 2765L5752.25 2765Z" fill="#6117FF"></path> <path d="M5831.76 2438.07L5900.41 2402.41C5906.27 2399.37 5913.52 2401.39 5916.93 2407.06C6036.25 2605.51 5970.61 2798.26 5917.02 2879.61C5913.52 2884.93 5906.59 2886.49 5901 2883.48C5883.6 2874.12 5855.74 2858.94 5830.47 2844.62C5824.17 2841.05 5822.18 2832.89 5825.79 2826.59C5912.46 2675.67 5866.87 2525.3 5826.66 2456.94C5822.76 2450.31 5824.96 2441.6 5831.76 2438.07Z" fill="#6117FF"></path> <path d="M5752.25 4725C5759.29 4725 5765 4730.69 5765 4737.71L5765 4842.29C5765 4849.31 5759.29 4855 5752.25 4855L5380.75 4855C5373.71 4855 5368 4849.31 5368 4842.29L5368 4737.71C5368 4730.69 5373.71 4725 5380.75 4725L5752.25 4725Z" fill="#6117FF"></path> <path d="M5752.25 5092C5759.29 5092 5765 5097.74 5765 5104.81L5765 5210.19C5765 5217.27 5759.29 5223 5752.25 5223L5380.75 5223C5373.71 5223 5368 5217.26 5368 5210.19L5368 5104.81C5368 5097.73 5373.71 5092 5380.75 5092L5752.25 5092Z" fill="#6117FF"></path> <path d="M5831.76 4764.92L5900.41 4729.41C5906.27 4726.38 5913.52 4728.39 5916.93 4734.04C6036.25 4931.66 5970.61 5123.62 5917.02 5204.63C5913.52 5209.93 5906.59 5211.49 5901 5208.49C5883.6 5199.17 5855.74 5184.05 5830.47 5169.79C5824.17 5166.23 5822.18 5158.1 5825.79 5151.83C5912.46 5001.53 5866.87 4851.79 5826.66 4783.71C5822.76 4777.11 5824.96 4768.43 5831.76 4764.92Z" fill="#6117FF"></path> <path d="M8617.19 1234C8624.26 1234 8630 1239.69 8630 1246.71L8630 1351.29C8630 1358.31 8624.26 1364 8617.19 1364L8243.81 1364C8236.74 1364 8231 1358.31 8231 1351.29L8231 1246.71C8231 1239.69 8236.74 1234 8243.81 1234L8617.19 1234Z" fill="#6117FF"></path> <path d="M8617.19 1602C8624.26 1602 8630 1607.74 8630 1614.81L8630 1720.19C8630 1727.27 8624.26 1733 8617.19 1733L8243.81 1733C8236.74 1733 8231 1727.26 8231 1720.19L8231 1614.81C8231 1607.73 8236.74 1602 8243.81 1602L8617.19 1602Z" fill="#6117FF"></path> <path d="M8695.81 1273.99L8764.89 1238.41C8770.78 1235.37 8778.08 1237.39 8781.51 1243.05C8901.57 1441.09 8835.52 1633.44 8781.6 1714.62C8778.08 1719.93 8771.11 1721.49 8765.49 1718.49C8747.98 1709.14 8719.94 1693.99 8694.51 1679.7C8688.17 1676.14 8686.17 1668 8689.81 1661.71C8777.02 1511.1 8731.14 1361.04 8690.68 1292.82C8686.75 1286.21 8688.96 1277.52 8695.81 1273.99Z" fill="#6117FF"></path> <path d="M8617.19 3560C8624.26 3560 8630 3565.78 8630 3572.91L8630 3679.09C8630 3686.22 8624.26 3692 8617.19 3692L8243.81 3692C8236.74 3692 8231 3686.22 8231 3679.09L8231 3572.91C8231 3565.78 8236.74 3560 8243.81 3560L8617.19 3560Z" fill="#6117FF"></path> <path d="M8617.19 3930C8624.26 3930 8630 3935.69 8630 3942.71L8630 4047.29C8630 4054.31 8624.26 4060 8617.19 4060L8243.81 4060C8236.74 4060 8231 4054.31 8231 4047.29L8231 3942.71C8231 3935.69 8236.74 3930 8243.81 3930L8617.19 3930Z" fill="#6117FF"></path> <path d="M8695.81 3601.99L8764.89 3566.41C8770.78 3563.37 8778.08 3565.39 8781.51 3571.05C8901.57 3769.09 8835.52 3961.44 8781.6 4042.62C8778.08 4047.93 8771.11 4049.49 8765.49 4046.49C8747.98 4037.14 8719.94 4021.99 8694.51 4007.7C8688.17 4004.14 8686.17 3996 8689.81 3989.71C8777.02 3839.1 8731.14 3689.04 8690.68 3620.82C8686.75 3614.21 8688.96 3605.52 8695.81 3601.99Z" fill="#6117FF"></path> <path d="M8617.19 5888C8624.26 5888 8630 5893.74 8630 5900.81L8630 6006.19C8630 6013.27 8624.26 6019 8617.19 6019L8243.81 6019C8236.74 6019 8231 6013.26 8231 6006.19L8231 5900.81C8231 5893.73 8236.74 5888 8243.81 5888L8617.19 5888Z" fill="#6117FF"></path> <path d="M8617.19 6257C8624.26 6257 8630 6262.69 8630 6269.71L8630 6374.29C8630 6381.31 8624.26 6387 8617.19 6387L8243.81 6387C8236.74 6387 8231 6381.31 8231 6374.29L8231 6269.71C8231 6262.69 8236.74 6257 8243.81 6257L8617.19 6257Z" fill="#6117FF"></path> <path d="M8695.81 5928.99L8764.89 5893.41C8770.78 5890.37 8778.08 5892.39 8781.51 5898.05C8901.57 6096.09 8835.52 6288.44 8781.6 6369.62C8778.08 6374.93 8771.11 6376.49 8765.49 6373.49C8747.98 6364.14 8719.94 6348.99 8694.51 6334.7C8688.17 6331.14 8686.17 6323 8689.81 6316.71C8777.02 6166.1 8731.14 6016.04 8690.68 5947.82C8686.75 5941.21 8688.96 5932.52 8695.81 5928.99Z" fill="#6117FF"></path> </svg> 